<?xml version="1.0" encoding="UTF-8"?>
<svg id="Layer_1" data-name="Layer 1" xmlns="http://www.w3.org/2000/svg" xmlns:xlink="http://www.w3.org/1999/xlink" version="1.1" viewBox="0 0 1920 1080">
  <defs>
    <style>
      .cls-1, .cls-2 {
        font-family: Masqualero-Regular, Masqualero;
        font-size: 172.8px;
      }

      .cls-1, .cls-3 {
        fill: #ffb600;
      }

      .cls-4 {
        clip-path: url(#clippath);
      }

      .cls-5 {
        fill: none;
      }

      .cls-5, .cls-6, .cls-7, .cls-3, .cls-8 {
        stroke-width: 0px;
      }

      .cls-6 {
        fill: #14274c;
      }

      .cls-9 {
        clip-path: url(#clippath-1);
      }

      .cls-7, .cls-2 {
        fill: #194e86;
      }

      .cls-8 {
        fill: #fff;
      }
    </style>
    <clipPath id="clippath">
      <rect class="cls-5" x="268" y="-239.7" width="1613" height="2087.4"/>
    </clipPath>
    <clipPath id="clippath-1">
      <rect class="cls-5" x="268" y="-239.7" width="1613" height="2087.4"/>
    </clipPath>
  </defs>
  <g>
    <path class="cls-7" d="M410.5,825.2c11.4,9.5,21.8,13.3,31,14.8,18.2-2.9,33-15,33-32.5s-1.9-11.1-5.3-15.5c-6.3-7.8-19.1-14.5-32.7-21.8-13.3-7-25.4-12.4-33.7-21.3-7.3-7.3-13.1-17.2-13.1-31.3s5.8-26.4,15.5-34.4c10.2-8.2,23.8-12.4,39-12.4s32.5,2.9,42.4,6.3c1.7,9,2.7,25.7,4.1,39.7l-3.1.5c-5.1-10.4-11.6-19.1-19.1-26.4-9-8.7-18.4-13.3-27.6-14.8-15.5,2.9-30.5,14.8-30.5,34.7s2.9,15.3,8.5,21.6c7,7.5,18.7,12.8,31.3,19.1,23.8,11.4,45.3,23.8,45.3,49.2s-4.1,22.3-14.1,31c-9.5,8.5-24.7,14.1-44.1,14.1s-34.7-2.7-45.1-6.8c-2.4-7.8-4.1-24.7-6.5-41.2l3.1-.7c4.8,10.9,13.1,20.6,21.8,28.1Z"/>
    <path class="cls-7" d="M526.1,831.5c3.6-7.5,4.6-19.4,4.6-39s-.7-26.7-2.9-33.4c-1.5-5.6-5.1-8.2-9.5-8.2s-3.1.2-4.4.5l-.7-2.7c4.6-2.2,12.4-5.8,17.9-9.5,5.6-3.6,13.6-8.2,16-8.2,1,.2,1.5.7,1.9,1.9.5,3.6.7,10.9.7,19.6v1c6.3-5.1,12.1-9.7,17.7-13.3,7.5-4.6,14.5-7.5,22.5-7.5,11.9,0,19.4,8.5,21.8,22.3,7-5.8,13.8-11.4,20.8-15.5,6.8-4.1,13.8-6.8,20.4-6.8,11.1,0,18.7,7.3,21.3,19.6,2.2,8.2,2.7,17.4,2.9,28.1.2,9.5.5,19.1,1,25.9.7,10.7,1.5,20.1,5.1,25.7,2.9,4.6,6.5,7,11.9,8.7l-.2,2.7c-7.8,0-17.4-.7-26.7-.7s-20.1.5-25.4.7l-.2-2.7c6.1-2.7,10.7-7.5,12.6-14.8,2.9-9.7,2.9-24,2.9-36.4s-.2-20.8-2.4-29.3c-2.4-9-8.7-12.8-17.2-12.8s-17.4,4.8-26.2,12.8c.7,8.2,1,16,1,28.1v6.8c0,16.2,1.2,26.9,3.2,32.5,2.9,7.5,6.5,11.1,13.1,13.1l-.2,2.7c-7,0-16.2-.7-24.5-.7s-19.1.5-25,.7l-.2-2.7c4.8-2.4,9.2-6.5,11.1-13.1,2.9-9.5,3.4-24.7,3.4-38.5s-.2-20.4-2.2-28.6c-2.2-9.2-8.5-13.3-17.2-13.3s-17.2,5.3-25,11.9v24.5c0,24.2.5,35.1,2.9,42.7,1.9,6.3,6.3,12.1,13.6,14.5l-.2,2.7c-5.6,0-18.7-.7-26.7-.7s-20.6.7-24.5.7l-.2-2.7c4.8-1.7,9-4.1,11.4-9.2Z"/>
    <path class="cls-7" d="M709.5,817.5c0-5.6,1.5-10.4,4.1-12.6,9-4.6,35.4-10.4,56.2-16.2v-5.6c0-7.3-.5-14.5-1.5-19.4-1.7-10.4-7.5-16.7-19.4-16.7s-10.2,1.7-13.8,4.1c0,3.2.7,10.4.7,13.8s-.2,5.6-1,7.5c-1.2,3.1-4.1,5.6-8.5,5.6s-11.6-3.9-11.6-9.5,6.8-12.1,17.5-19.6c2.9-2.2,6.8-5.1,10.9-8,8-5.1,15-8.2,23-8.2s15,3.9,19.1,11.9c2.4,4.8,3.6,10.4,4.1,17.7.2,3.1.2,7,.2,9.9,0,9-.5,18.2-.5,25.4,0,10.4.5,17.2,2.4,22.8,1.9,4.8,5.6,6.8,9.7,6.8s3.4-.2,4.8-.5l.7,2.2c-3.4,2.2-9.2,6.8-13.8,10.4-4.1,3.1-8.5,6.1-11.4,6.1s-8-7.5-10.4-16.5c-9,7.5-19.9,16.7-34.2,16.7s-27.6-10.9-27.6-28.1ZM770.4,824.3c-.5-3.2-.7-7-.7-11.1s.2-13.3.2-19.6l-10.4,2.4c-22.8,5.1-28.4,9.7-28.4,19.1s8,17.4,18.7,17.4,15.8-3.4,20.6-8.2Z"/>
    <path class="cls-7" d="M826.6,832.5c3.6-6.5,5.3-15.8,5.3-35.9s-1.2-30.8-2.4-35.6c-1.7-7.8-5.8-10.2-9.9-10.2s-3.4.2-4.4.5l-.7-2.7c4.4-1.9,11.9-5.6,16-8.2,7-4.6,15.3-9.5,17.9-9.5s1.5.2,1.7,1c1,3.4,1,13.6,1,21.3v11.1c4.1-8,10.9-17.7,17.9-24.7,5.3-5.8,9.2-7.5,13.3-7.5,8,0,13.6,10.2,13.6,17.9s-3.4,8.2-8.5,8.2-12.4-2.7-20.1-2.7-2.9,0-4.1.5c-4.1,2.9-11.9,13.6-12.1,26.7v9.7c0,11.1.2,25.2,3.6,34.7,2.2,5.8,8.2,11.9,19.6,13.3l-.2,2.9c-8.5,0-23.5-.7-32.2-.7s-17.2.5-25.9.7l-.2-2.7c3.6-1,8.7-4.1,10.9-8.2Z"/>
    <path class="cls-7" d="M927.9,838.8c-3.4-4.6-4.6-12.4-4.6-22.3s.5-27.6.5-40.5,0-20.1-.2-29.1c-6.3,0-13.1.2-18.2.7l-.5-2.9c8.2-4.1,15.8-9.5,21.8-17,6.1-7,10.7-15.5,14.3-25.2l3.1.7c-.5,7.8-1,18.9-1,29.1v2.9c13.3,0,26.9,0,36.3-.2,0,3.9-.7,9-1.9,12.4-9-.5-21.6-.5-34.4-.5v31.7c0,18.4.2,33.4,1.9,41.2s5.8,11.1,12.1,11.1,13.6-4.1,18.2-9.2l3.2,2.7c-4.4,5.1-10.4,10.9-17.5,15.3-5.3,3.6-12.4,5.8-18.9,5.8s-11.1-2.2-14.3-6.8Z"/>
    <path class="cls-3" d="M1024.3,842.7c-7.5,0-22.8.5-32,.7l-.2-2.9c12.1-4.1,18.7-11.4,21.1-23.3,2.7-11.6,2.7-41.4,2.7-60.3s-.2-35.4-1.2-48c-1-12.8-3.4-19.6-9-25-5.3-5.3-12.6-6.8-17-7.8l.2-2.9c6.1.5,22.1.7,30.1.7s27.9-.7,40-.7c21.1,0,36.6,2.9,48.2,12.4,9.9,8,13.8,17.2,13.8,29.1s-3.4,17-9,23.3c-5.8,6.5-13.8,11.9-22.1,15.3,9,1.7,17.4,5.1,24.5,10.7,8.2,6.1,14.8,16.2,14.8,30.1s-6.1,26.9-17.2,36.1c-11.4,8.7-27.1,13.6-43.9,13.6s-30.5-1-43.9-1ZM1083.2,751.5c10.4-7.5,14.8-18.4,14.8-31.5s-6.3-26.9-21.3-35.1c-6.3-3.4-14.5-5.8-22.8-6.3-5.3.2-10.9,1-15,1.7-.2,1.7-1,7.8-1.5,17.2-.7,9.7-1.2,25.7-1.2,53.3,9.5,1.7,18.2,2.2,27.1,2.2s14.3-.5,19.9-1.5ZM1094.4,826.9c6.8-7,10.9-16.7,10.9-29.3s-4.6-20.8-11.9-27.4c-7.8-6.5-17.7-10.4-29.8-11.1-11.1,0-18.9-.2-27.4-.7v20.6c0,16.5,1,30.5,2.2,37.6,1.7,9.7,4.4,12.4,8.7,15.8,4.6,3.9,13.3,5.3,20.8,5.6,10.7-1,20.4-4.6,26.4-10.9Z"/>
    <path class="cls-3" d="M1159.3,831c2.9-6.3,3.4-12.8,3.6-18.2.5-5.3.7-13.6.7-22.3v-29.8c0-16.5-.2-32-.5-43.9-.2-15-.7-26.7-3.2-33.7-1.9-5.1-6.3-8-11.4-8s-3.2.2-4.1.5l-1-2.7c4.8-2.4,14.8-6.8,21.3-11.1,4.8-3.6,13.1-8.5,15.5-8.5l2.2,1.2c.5,3.9,1,12.1,1,19.6,0,15.8-.5,62.8-.5,109.3s.7,34.2,2.4,41c1.9,6.8,6.3,13.8,14.8,16.2l-.2,2.7c-4.8,0-19.4-.7-27.9-.7s-22.3.7-24.5.7l-.2-2.7c5.1-1.7,9.2-4.1,11.9-9.7Z"/>
    <path class="cls-3" d="M1220.7,833.2c3.9-6.1,5.6-15.3,5.6-38.5s-1.2-28.8-2.4-33.7c-1.7-7.3-5.1-10.2-9.9-10.2s-3.6.2-4.4.5l-.7-2.7c4.4-2.2,11.9-5.3,16.2-8.2,6.5-4.4,15-9.5,17.7-9.5s1.7.5,2.2,1.7c.7,2.2,1,6.8,1,13.3s-.7,21.1-.7,42.4v8.2c0,10.9.5,25.4,4.8,33.7,2.7,5.1,6.8,8.5,12.8,10.4l-.2,2.7c-7-.2-19.4-.7-26.9-.7s-18.9.5-25.4.7l-.2-2.7c3.9-1.2,8-3.6,10.7-7.5ZM1222.1,695.1c0-8,5.8-15.8,15-15.8s11.1,5.1,11.1,10.9-4.1,9.7-9,12.6c-4.1,2.4-8.5,4.4-12.1,6.8l-1.5-.5c-2.2-3.9-3.6-8.7-3.6-14.1Z"/>
    <path class="cls-3" d="M1284.1,831c2.9-6.3,3.4-12.8,3.6-18.2.5-5.3.7-13.6.7-22.3,0-15-.7-24.2-2.9-32-1.7-5.1-5.1-7.8-9.7-7.8s-2.9.2-4.1.5l-.7-2.7c4.8-2.2,12.6-5.8,19.1-10.2,4.4-3.1,12.4-7.5,14.5-7.5s2.2.5,2.2,1.5c.7,3.9,1,10.7,1,19.4v1.9c15.3-11.9,28.1-21.1,42.7-21.1s23,9,24.7,24.5c1,8.5,1.2,18.7,1.5,29.6.2,11.9.5,23.8,1.5,30.8,1,6.8,1.9,11.6,4.8,15.5,2.7,4.6,6.1,6.3,11.6,7.8l-.2,2.7c-8.2,0-16.5-.7-26.2-.7s-20.4.5-26.4.7l-.2-2.7c5.6-2.7,10.2-6.8,12.4-14.5,2.9-9.7,3.2-23.3,3.2-35.4s-.2-21.6-2.9-30.8c-2.7-9.5-10.4-13.1-19.6-13.1s-18.7,5.3-26.7,12.4v24.2c0,20.8.5,33.7,2.4,41,1.9,6.8,6.3,13.8,14.8,16.2l-.2,2.7c-4.8,0-19.4-.7-27.9-.7s-22.3.7-24.5.7l-.2-2.7c5.1-1.7,9.2-4.1,11.9-9.7Z"/>
    <path class="cls-3" d="M1488.2,834.4c-6.5-6.1-12.6-14.1-18.4-22.8-6.5-9.5-12.6-18.9-16-23.7-4.6,2.4-9.7,4.4-15,6.3.2,15.3,1.2,25.4,2.7,30.8,1.9,6.5,6.1,12.8,14.5,15.8l-.2,2.7c-4.8,0-19.1-.7-27.6-.7s-22.5.7-24.7.7l-.2-2.7c5.1-1.7,9.2-4.1,11.9-9.5,2.7-5.8,3.2-12.1,3.6-17,.5-5.6.7-14.8.7-23.8v-31.5c0-9.2-.2-19.4-.2-29.1-.2-20.6-.5-39.3-3.4-46.8-1.9-4.8-6.1-8-11.4-8s-3.2.2-4.1.5l-1-2.7c4.8-2.4,14.5-6.5,21.6-11.1,4.1-2.9,12.6-8.5,15.3-8.5.7.2,1.5.7,2.2,1.2.5,4.8,1,11.4,1,17,0,16-.5,63.7-.5,110v7c2.4-.5,6.1-1.9,9.2-3.1,4.6-1.9,9.2-4.6,12.6-7,11.1-7,21.8-17,21.8-27.4s-4.6-11.9-10.9-13.6l.2-2.7c1.7,0,16.7.7,23.8.7s17.5-.5,22.3-.5l.2,2.7c-5.8,2.4-12.8,8-20.6,15.5-9.7,9.5-19.4,18.9-27.1,24.5,8.5,12.4,18.2,26.2,29.1,39,6.8,8.5,14.3,15,19.9,18.9,4.1,2.9,7.8,4.6,11.1,5.3l-.2,2.2c-4.1,1-10.2,1.5-15.8,1.5-11.4,0-19.1-3.9-26.2-10.2Z"/>
  </g>
  <g class="cls-4">
    <g class="cls-9">
      <path class="cls-6" d="M828.9,441.4c-1.1-2,52.2-40.6,160-115.8,34.5,22.3,68.9,44.6,103.4,66.9,0-4.1-.1-8.2-.2-12.3.3-1.6,1.2-5.1,4.2-8.2,5.5-5.7,13.5-5.1,14.6-5.1,30-.2,59.9-.3,89.9-.5,3.2,1.1,7.7,3.2,11.8,7.1,1.8,1.7,4.4,4.2,5.6,8.2.4,1.4.5,2.6.5,3.2.4,7.1,0,73.8,0,80.8,0,1.5,0,6.7-3.9,11.6-3.7,4.7-8.6,6.3-10.2,6.7-30,.2-60,.5-90,.7.2,36.4.3,72.9.5,109.3-.7,2.6-3.1,9.4-10,14.9-5.6,4.4-11.5,5.8-14.3,6.3-69.7-.3-139.3-.6-209-.9-2-.6-6.2-2.1-10-5.9-3.9-3.9-5.2-8-5.7-9.9-.3-54.5-.6-109-1-163.5h14.3v153.6c.1,1.3.7,4.9,3.8,8.1,2.5,2.6,5.3,3.7,6.7,4.1,66.7.3,133.3.6,200,.9.9-.1,4.5-.8,7.2-4.1,2.1-2.6,2.3-5.5,2.4-6.8.3-6.3,1.3-48.2,2.2-105.8-1.1-.2-3.6-.8-5.8-2.8-3.2-2.9-3.6-6.5-3.7-7.4,0-22.1-.2-44.3-.2-66.4-34.1-22.2-68.3-44.3-102.4-66.5-105.9,68.4-159.4,101.5-160.5,99.5"/>
      <path class="cls-8" d="M1128.2,429.4c-.3.3-1.6,1.7-1.7,3.8,0,2.1,1,3.5,1.3,3.8.8,0,5.1-.3,8.7,2.7,4.5,3.8,3.8,9.4,3.7,9.8.2.2,1.9,2.1,4.7,2,2.1,0,3.4-1.3,3.8-1.6,1.6-6.2-.5-12.7-5.4-16.8-6.2-5.2-14-4-15-3.8"/>
      <path class="cls-8" d="M1128.2,410.4c-.2.1-2.9,1.7-3,4.7-.1,2.2,1,4.3,3,5.4,1.7-.1,11.8-.7,20.2,6.4,9.2,7.8,9,18.5,9,20,.3.3,2.6,2.1,5.9,1.7,2.9-.4,4.5-2.3,4.8-2.7,0-2.5,0-14.7-9.9-24.8-11.8-11.9-27.9-11-30-10.9"/>
      <path class="cls-8" d="M1129.7,391c-2.3,1.1-3.6,3.3-3.2,5.4.3,2,2.1,3.1,2.4,3.3,5.6.3,15.5,1.6,25.3,7.6,19.6,12.1,23.1,33.1,23.2,34.8,0,.1,0,.9.2,2,.3,1.3.5,2.8,1.5,3.7,2.1,2,6,1.7,8.2,0,1.1-.9,1.7-2,1.9-2.7,0-4.1-.4-22.1-15.2-37.1-17.4-17.7-40.8-17.3-44.3-17.2"/>
    </g>
    <text class="cls-2" transform="translate(891.3 580.2) scale(1 1.1)"><tspan x="0" y="0">S</tspan></text>
    <text class="cls-1" transform="translate(970.2 580.2) scale(1 1.1)"><tspan x="0" y="0">B</tspan></text>
  </g>
</svg>